Normalized EMG Linear Envelopes
nRows=32
nColumns=17

endheader
time	        VM	        VL	        RF	       GRA	        TA	   ADDLONG	   SEMIMEM	      BFLH	        GM	        GL	       TFL	   GLUTMAX	   GLUTMED	      PIRI	    OBTINT	        QF	
2.2675	  0.434011	  0.341541	  0.044224	  0.267589	  0.314214	  0.059513	  0.476945	  0.475408	  0.353446	  0.178918	  0.014047	  0.619378	  0.241339	  0.667489	  1.472742	  1.249471	
2.268	  0.437012	  0.343373	  0.044701	  0.267412	  0.311690	  0.059554	  0.472528	  0.474199	  0.352688	  0.180570	  0.014205	  0.624722	  0.243149	  0.668808	  1.485450	  1.254527	
2.2685	  0.439966	  0.345169	  0.045177	  0.267231	  0.309132	  0.059594	  0.468135	  0.472991	  0.351944	  0.182240	  0.014365	  0.629992	  0.244966	  0.670064	  1.498352	  1.259368	
2.269	  0.442871	  0.346932	  0.045651	  0.267045	  0.306542	  0.059635	  0.463769	  0.471782	  0.351218	  0.183928	  0.014528	  0.635187	  0.246790	  0.671256	  1.511442	  1.263989	
2.2695	  0.445724	  0.348658	  0.046125	  0.266853	  0.303923	  0.059675	  0.459429	  0.470575	  0.350509	  0.185632	  0.014693	  0.640302	  0.248620	  0.672385	  1.524715	  1.268387	
2.27	  0.448522	  0.350349	  0.046597	  0.266656	  0.301277	  0.059716	  0.455118	  0.469370	  0.349820	  0.187352	  0.014861	  0.645335	  0.250456	  0.673450	  1.538164	  1.272559	
2.2705	  0.451263	  0.352003	  0.047067	  0.266453	  0.298606	  0.059756	  0.450836	  0.468167	  0.349150	  0.189089	  0.015032	  0.650283	  0.252298	  0.674453	  1.551785	  1.276503	
2.271	  0.453944	  0.353619	  0.047535	  0.266242	  0.295913	  0.059795	  0.446585	  0.466966	  0.348501	  0.190841	  0.015205	  0.655144	  0.254145	  0.675393	  1.565570	  1.280215	
2.2715	  0.456563	  0.355196	  0.048001	  0.266024	  0.293198	  0.059834	  0.442366	  0.465769	  0.347874	  0.192607	  0.015381	  0.659914	  0.255996	  0.676271	  1.579516	  1.283693	
2.272	  0.459118	  0.356735	  0.048464	  0.265797	  0.290466	  0.059872	  0.438180	  0.464575	  0.347269	  0.194387	  0.015559	  0.664591	  0.257852	  0.677087	  1.593617	  1.286934	
2.2725	  0.461607	  0.358233	  0.048925	  0.265561	  0.287716	  0.059909	  0.434027	  0.463385	  0.346687	  0.196181	  0.015740	  0.669174	  0.259712	  0.677844	  1.607868	  1.289936	
2.273	  0.464031	  0.359690	  0.049383	  0.265316	  0.284952	  0.059944	  0.429909	  0.462201	  0.346128	  0.197988	  0.015923	  0.673658	  0.261576	  0.678540	  1.622266	  1.292697	
2.2735	  0.466388	  0.361105	  0.049837	  0.265060	  0.282175	  0.059978	  0.425827	  0.461022	  0.345594	  0.199807	  0.016109	  0.678043	  0.263443	  0.679179	  1.636806	  1.295216	
2.274	  0.468679	  0.362478	  0.050289	  0.264794	  0.279388	  0.060011	  0.421782	  0.459848	  0.345084	  0.201638	  0.016298	  0.682324	  0.265314	  0.679761	  1.651486	  1.297494	
2.2745	  0.470902	  0.363807	  0.050736	  0.264518	  0.276591	  0.060042	  0.417775	  0.458680	  0.344599	  0.203480	  0.016489	  0.686500	  0.267189	  0.680286	  1.666301	  1.299528	
2.275	  0.473058	  0.365093	  0.051180	  0.264231	  0.273788	  0.060072	  0.413806	  0.457518	  0.344139	  0.205332	  0.016682	  0.690566	  0.269067	  0.680757	  1.681249	  1.301319	
2.2755	  0.475147	  0.366333	  0.051620	  0.263932	  0.270979	  0.060099	  0.409877	  0.456363	  0.343704	  0.207195	  0.016878	  0.694522	  0.270949	  0.681174	  1.696327	  1.302866	
2.276	  0.477169	  0.367527	  0.052055	  0.263624	  0.268167	  0.060125	  0.405989	  0.455215	  0.343296	  0.209066	  0.017076	  0.698363	  0.272834	  0.681539	  1.711531	  1.304167	
2.2765	  0.479123	  0.368675	  0.052486	  0.263304	  0.265354	  0.060149	  0.402143	  0.454074	  0.342913	  0.210947	  0.017277	  0.702088	  0.274723	  0.681852	  1.726859	  1.305223	
2.277	  0.481010	  0.369776	  0.052911	  0.262974	  0.262542	  0.060172	  0.398339	  0.452940	  0.342557	  0.212835	  0.017480	  0.705694	  0.276616	  0.682116	  1.742306	  1.306033	
2.2775	  0.482830	  0.370829	  0.053331	  0.262634	  0.259731	  0.060192	  0.394578	  0.451815	  0.342227	  0.214731	  0.017684	  0.709179	  0.278512	  0.682331	  1.757872	  1.306599	
2.278	  0.484583	  0.371834	  0.053746	  0.262283	  0.256925	  0.060210	  0.390861	  0.450697	  0.341923	  0.216633	  0.017891	  0.712543	  0.280411	  0.682498	  1.773552	  1.306920	
2.2785	  0.486270	  0.372790	  0.054154	  0.261921	  0.254124	  0.060226	  0.387189	  0.449589	  0.341645	  0.218541	  0.018100	  0.715783	  0.282314	  0.682618	  1.789347	  1.306999	
2.279	  0.487889	  0.373697	  0.054557	  0.261549	  0.251330	  0.060240	  0.383561	  0.448489	  0.341394	  0.220455	  0.018311	  0.718900	  0.284220	  0.682691	  1.805254	  1.306835	
2.2795	  0.489443	  0.374554	  0.054952	  0.261166	  0.248545	  0.060251	  0.379978	  0.447399	  0.341168	  0.222373	  0.018524	  0.721892	  0.286129	  0.682717	  1.821272	  1.306429	
2.28	  0.490931	  0.375362	  0.055341	  0.260773	  0.245769	  0.060260	  0.376441	  0.446319	  0.340969	  0.224296	  0.018739	  0.724760	  0.288041	  0.682697	  1.837401	  1.305783	
2.2805	  0.492353	  0.376120	  0.055723	  0.260368	  0.243004	  0.060267	  0.372949	  0.445248	  0.340796	  0.226222	  0.018955	  0.727504	  0.289957	  0.682630	  1.853639	  1.304899	
2.281	  0.493710	  0.376828	  0.056097	  0.259953	  0.240252	  0.060271	  0.369505	  0.444189	  0.340648	  0.228150	  0.019174	  0.730125	  0.291875	  0.682517	  1.869986	  1.303776	
2.2815	  0.495003	  0.377485	  0.056464	  0.259526	  0.237514	  0.060272	  0.366106	  0.443140	  0.340526	  0.230081	  0.019393	  0.732621	  0.293797	  0.682358	  1.886440	  1.302417	
2.282	  0.496232	  0.378092	  0.056823	  0.259089	  0.234790	  0.060271	  0.362755	  0.442103	  0.340428	  0.232014	  0.019614	  0.734994	  0.295722	  0.682152	  1.903000	  1.300824	
2.2825	  0.497400	  0.378646	  0.057173	  0.258640	  0.232082	  0.060266	  0.359450	  0.441076	  0.340356	  0.233947	  0.019837	  0.737244	  0.297650	  0.681898	  1.919663	  1.298998	
2.283	  0.498505	  0.379149	  0.057514	  0.258180	  0.229392	  0.060259	  0.356194	  0.440061	  0.340307	  0.235881	  0.020061	  0.739371	  0.299582	  0.681597	  1.936429	  1.296942	
